HIERARCHY
ROOT hip
{
	OFFSET 0.000000 0.000000 0.000000
	CHANNELS 6 Xposition Yposition Zposition Xrotation Zrotation Yrotation 
	JOINT abdomen
	{
		OFFSET 0.000000 3.422050 0.000000
		CHANNELS 3 Xrotation Zrotation Yrotation 
		JOINT chest
		{
			OFFSET 0.000000 8.486693 -0.684411
			CHANNELS 3 Xrotation Zrotation Yrotation 
			JOINT neck
			{
				OFFSET 0.000000 10.266162 -0.273764
				CHANNELS 3 Xrotation Zrotation Yrotation 
				JOINT head
				{
					OFFSET 0.000000 3.148285 0.000000
					CHANNELS 3 Xrotation Zrotation Yrotation 
					End Site
					{
						OFFSET 0.000000 3.148289 0.000000
					}
				}
			}
			JOINT lCollar
			{
				OFFSET 3.422053 6.707223 -0.821293
				CHANNELS 3 Yrotation Zrotation Xrotation 
				JOINT lShldr
				{
					OFFSET 3.285171 0.000000 0.000000
					CHANNELS 3 Zrotation Yrotation Xrotation 
					JOINT lForeArm
					{
						OFFSET 10.129278 0.000000 0.000000
						CHANNELS 3 Yrotation Zrotation Xrotation 
						JOINT lHand
						{
							OFFSET 8.486692 0.000000 0.000000
							CHANNELS 3 Zrotation Yrotation Xrotation 
							End Site
							{
								OFFSET 4.106464 0.000000 0.000000
							}
						}
					}
				}
			}
			JOINT rCollar
			{
				OFFSET -3.558935 6.707223 -0.821293
				CHANNELS 3 Yrotation Zrotation Xrotation 
				JOINT rShldr
				{
					OFFSET -3.148289 0.000000 0.000000
					CHANNELS 3 Zrotation Yrotation Xrotation 
					JOINT rForeArm
					{
						OFFSET -10.266159 0.000000 0.000000
						CHANNELS 3 Yrotation Zrotation Xrotation 
						JOINT rHand
						{
							OFFSET -8.349810 0.000000 0.000000
							CHANNELS 3 Zrotation Yrotation Xrotation 
							End Site
							{
								OFFSET -4.106464 0.000000 0.000000
							}
						}
					}
				}
			}
		}
	}
	JOINT lThigh
	{
		OFFSET 5.338403 -1.642589 1.368821
		CHANNELS 3 Xrotation Zrotation Yrotation 
		JOINT lShin
		{
			OFFSET -2.053232 -20.121670 0.000000
			CHANNELS 3 Xrotation Zrotation Yrotation 
			JOINT lFoot
			{
				OFFSET 0.000000 -19.300380 -1.231939
				CHANNELS 3 Xrotation Yrotation Zrotation 
				End Site
				{
					OFFSET 0.000000 -2.463878 4.653993
				}
			}
		}
	}
	JOINT rThigh
	{
		OFFSET -5.338403 -1.642589 1.368821
		CHANNELS 3 Xrotation Zrotation Yrotation 
		JOINT rShin
		{
			OFFSET 2.053232 -20.121670 0.000000
			CHANNELS 3 Xrotation Zrotation Yrotation 
			JOINT rFoot
			{
				OFFSET 0.000000 -19.300380 -1.231939
				CHANNELS 3 Xrotation Yrotation Zrotation 
				End Site
				{
					OFFSET 0.000000 -2.463878 4.653993
				}
			}
		}
	}
}
MOTION
Frames: 6
Frame Time: 0.033264
-1.775203 10.262100 -0.928161 0.000000 0.000000 0.000000 0.409810 5.301082 -28.583454 4.349453 0.565062 1.941117 -14.662647 13.508575 1.942601 -7.005894 13.904164 -16.050661 -32.230694 -17.362076 -7.728356 -18.129942 -51.538960 8.367727 -83.850586 -0.048310 -7.699777 8.671041 -24.653429 -2.854869 26.176430 -10.228523 2.169597 -13.018031 -8.179990 1.974072 111.167122 -6.643523 0.277618 -29.375183 -0.964417 -61.958710 -91.101273 23.475849 29.989807 53.272572 -30.055992 -0.743477 25.283073 -2.142293 2.604528 -103.128281 -5.430166 -0.167126 48.364197 2.305078 0.113071 25.283028 2.138117 -2.607185 
-1.775203 10.262100 -0.928161 0.000000 0.000000 0.000000 0.409810 5.301082 -28.583454 4.349452 0.565062 1.941117 -14.670566 13.558665 1.930448 -7.011595 13.811840 -16.098015 -32.230694 -17.362076 -7.728356 -18.129942 -51.538960 8.367727 -83.739120 -0.132688 -7.742734 8.671041 -24.653429 -2.854869 26.176428 -10.228523 2.169597 -13.018031 -8.179990 1.974072 111.167122 -6.643523 0.277618 -29.053747 -0.985252 -62.015324 -91.101273 23.475851 29.989803 53.272572 -30.055992 -0.743477 25.283073 -2.142293 2.604528 -103.128281 -5.430166 -0.167126 48.364189 2.305078 0.113071 25.283028 2.138117 -2.607185 
-1.775203 10.262100 -0.928161 0.000000 0.000000 0.000000 0.409810 5.301082 -28.583454 4.349452 0.565062 1.941117 -14.678493 13.608755 1.918285 -7.017216 13.719503 -16.145350 -32.230694 -17.362076 -7.728356 -18.129942 -51.538960 8.367727 -83.627693 -0.217164 -7.785534 8.671041 -24.653429 -2.854869 26.176428 -10.228523 2.169597 -13.018031 -8.179990 1.974072 111.167122 -6.643523 0.277618 -28.731993 -1.005788 -62.072109 -91.101273 23.475851 29.989803 53.272572 -30.055992 -0.743477 25.283073 -2.142293 2.604528 -103.128281 -5.430166 -0.167126 48.364189 2.305078 0.113071 25.283028 2.138117 -2.607185 
-1.775203 10.262100 -0.928161 0.000000 0.000000 0.000000 0.409810 5.301082 -28.583454 4.349452 0.565062 1.941117 -14.686435 13.658841 1.906112 -7.022755 13.627146 -16.192656 -32.230694 -17.362076 -7.728356 -18.129942 -51.538960 8.367727 -83.516312 -0.301738 -7.828177 8.671041 -24.653429 -2.854869 26.176428 -10.228523 2.169597 -13.018031 -8.179990 1.974072 111.167122 -6.643523 0.277618 -28.409929 -1.026026 -62.129089 -91.101273 23.475851 29.989803 53.272572 -30.055992 -0.743477 25.283073 -2.142293 2.604528 -103.128281 -5.430166 -0.167126 48.364189 2.305078 0.113071 25.283028 2.138117 -2.607185 
-1.775203 10.262100 -0.928161 0.000000 0.000000 0.000000 0.409810 5.301082 -28.583454 4.349452 0.565062 1.941117 -14.694387 13.708927 1.893928 -7.028217 13.534780 -16.239950 -32.230694 -17.362076 -7.728356 -18.129942 -51.538960 8.367727 -83.404984 -0.386411 -7.870665 8.671041 -24.653429 -2.854869 26.176428 -10.228523 2.169597 -13.018031 -8.179990 1.974072 111.167122 -6.643523 0.277618 -28.087549 -1.045955 -62.186211 -91.101273 23.475851 29.989803 53.272572 -30.055992 -0.743477 25.283073 -2.142293 2.604528 -103.128281 -5.430166 -0.167126 48.364189 2.305078 0.113071 25.283028 2.138117 -2.607185 
-1.775203 10.262100 -0.928161 0.000000 0.000000 0.000000 0.409810 5.301082 -28.583454 4.349452 0.565062 1.941117 -14.702354 13.759011 1.881736 -7.033597 13.442394 -16.287214 -32.230694 -17.362076 -7.728356 -18.129942 -51.538960 8.367727 -83.293694 -0.471180 -7.912997 8.671041 -24.653429 -2.854869 26.176428 -10.228523 2.169597 -13.018031 -8.179990 1.974072 111.167122 -6.643523 0.277618 -27.764872 -1.065585 -62.243496 -91.101273 23.475851 29.989803 53.272572 -30.055992 -0.743477 25.283073 -2.142293 2.604528 -103.128281 -5.430166 -0.167126 48.364189 2.305078 0.113071 25.283028 2.138117 -2.607185 
